<svg xmlns="http://www.w3.org/2000/svg" viewBox="0 0 85.89 67"><defs><style>.cls-1{fill:#00c8ff;}</style></defs><g id="Capa_2" data-name="Capa 2"><g id="Capa_1-2" data-name="Capa 1"><g id="Capa_2-2" data-name="Capa 2"><g id="Capa_1-2-2" data-name="Capa 1-2"><path d="M66.55,30.47C69.38-2.36,25.17,9.25,25.17,9.25l4.91,9.2s28.65-8.61,25.4,13C52.75,49.5,37.62,47.89,32.72,46.88L28.47,58.35c.84,0,2,.1,3.42.09C37,58.37,51.13,58.17,60,47.74,65.9,40.77,66.37,32.64,66.55,30.47Z"/><path d="M12.4,62.1c-1.29.13-2-.2-2.06-1a15,15,0,0,1,.46-3.66l4.14-20.72-4.75-4.18L16.9,27,20.64,8.71a21.15,21.15,0,0,1,.89-3.51L28.75,0h-9c-4.89.51-8.09,3.4-9.12,8.57L6.68,27.93l-4,5.39,2.46,2.17L.28,59.7A11.11,11.11,0,0,0,0,63.1c.31,2.79,2,3.95,5.58,3.9h13.1l-4.29-5.11Z"/><path d="M85.86,3.59C85.56.92,84.1,0,80.44,0H68.73l4.11,4.94,1-.1c.92-.09,1.43.27,1.52,1.1a15.15,15.15,0,0,1-.47,3.75L71.38,30.91l4.37,4.31-6,5.64L66.55,59.5a24.57,24.57,0,0,1-.92,3.64L59.34,67H69.1c5-.51,6.6-2,7.66-7.36l3.36-19.79L84,34.35l-2.52-2.2L85.61,6.8A10.21,10.21,0,0,0,85.86,3.59Z"/><path class="cls-1" d="M42,29.25l-11.78.11L19.75,56.7a27.06,27.06,0,0,0,8.72,1.65l4.25-11.47,3.72-10,8.82.11Z"/></g></g></g></g></svg>