<svg xmlns="http://www.w3.org/2000/svg" version="1.1" xmlns:xlink="http://www.w3.org/1999/xlink" xmlns:svgjs="http://svgjs.com/svgjs" width="1440" height="560" preserveAspectRatio="none" viewBox="0 0 1440 560"><g mask="url(&quot;#SvgjsMask1002&quot;)" fill="none"><rect width="1440" height="560" x="0" y="0" fill="rgba(0, 0, 0, 1)"></rect><path d="M1286.949,386.402C1314.25,386.468,1340.239,373.278,1353.959,349.675C1367.746,325.957,1366.683,296.629,1352.929,272.892C1339.213,249.22,1314.306,233.665,1286.949,234.021C1260.162,234.37,1237.251,251.359,1223.877,274.571C1210.526,297.743,1207.363,326.056,1220.501,349.35C1233.854,373.025,1259.768,386.336,1286.949,386.402" fill="rgba(223, 222, 27, 0.76)" class="triangle-float1"></path><path d="M654.3158285198323 487.84613890932224L564.8125111629646 377.1031165556865 518.1848174876302 492.51070817662884z" fill="rgba(223, 222, 27, 0.76)" class="triangle-float3"></path><path d="M1142.8514997448644 190.95796682455577L1230.8445539622762 93.23177959265459 1133.118366730375 5.238725375242865 1045.1253125129633 102.96491260714403z" fill="rgba(223, 222, 27, 0.76)" class="triangle-float3"></path><path d="M292.8281332736075 363.86728880084235L221.1587357644259 358.8556763191131 249.47601579642281 468.86557882375007z" fill="rgba(223, 222, 27, 0.76)" class="triangle-float2"></path><path d="M157.04510686580275 423.71977533992487L60.82261015413367 546.8789548347518 183.98178964896059 643.1014515464209 280.2042863606297 519.9422720515939z" fill="rgba(223, 222, 27, 0.76)" class="triangle-float2"></path><path d="M628.5947235714233 4.203051924807205L487.9922118875651 55.37818104079754 679.7698526874136 144.80556360866538z" fill="rgba(223, 222, 27, 0.76)" class="triangle-float2"></path><path d="M694.0796531452529 392.9382774503311L645.0937032414614 520.5510398683366 772.706465659467 569.536989772128 821.6924155632585 441.92422735412254z" fill="rgba(223, 222, 27, 0.76)" class="triangle-float3"></path><path d="M26.785,186.748C51.752,185.482,71.676,167.759,83.465,145.714C94.529,125.025,95.798,100.234,83.846,80.046C72.106,60.217,49.81,50.917,26.785,49.975C1.664,48.947,-25.095,54.061,-38.98,75.021C-54.176,97.96,-54.773,128.305,-40.815,152.018C-27.042,175.417,-0.332,188.124,26.785,186.748" fill="rgba(223, 222, 27, 0.76)" class="triangle-float1"></path><path d="M64.2555099263976 513.3258043462617L24.79203787944268 472.4601827542132-16.77465848515277 552.0882016206699z" fill="rgba(223, 222, 27, 0.76)" class="triangle-float1"></path><path d="M374.5697118938191 19.320380527726833L352.04745519203345 103.37458683989948 458.62391820599174 41.84263722951247z" fill="rgba(223, 222, 27, 0.76)" class="triangle-float2"></path><path d="M1026.41574706154 276.2064548504784L1130.0357620404106 198.1231728914383 1051.9524800813706 94.5031579125677 948.3324651024999 172.5864398716078z" fill="rgba(223, 222, 27, 0.76)" class="triangle-float2"></path><path d="M783.8383316821034 300.7495940175601L790.1262340791344 228.87854074483812 679.175702971536 255.38221378565277z" fill="rgba(223, 222, 27, 0.76)" class="triangle-float1"></path><path d="M590.6090542110113 457.97212240599066L504.158178451569 471.66459597871597 517.8506520242943 558.1154717381582 604.3015277837366 544.422998165433z" fill="rgba(223, 222, 27, 0.76)" class="triangle-float2"></path><path d="M98.414,140.294C132.592,141.769,163.2,118.454,178.553,87.883C192.531,60.05,184.858,27.64,168.207,1.319C152.831,-22.986,127.164,-39.552,98.414,-38.796C70.838,-38.07,48.434,-19.095,34.705,4.832C21.05,28.63,17.742,56.62,29.419,81.448C43.207,110.765,66.047,138.898,98.414,140.294" fill="rgba(223, 222, 27, 0.76)" class="triangle-float3"></path><path d="M24.44338383594146 358.02991471317443L113.17717904419156 240.2761912793401-93.31033959789286 269.2961195049243z" fill="rgba(223, 222, 27, 0.76)" class="triangle-float3"></path><path d="M428.48547149747316 150.540973775941L516.9401299337351 95.26836868551311 373.2128664070452 62.08631533967912z" fill="rgba(223, 222, 27, 0.76)" class="triangle-float2"></path><path d="M73.77217554408409 526.1880348555345L160.57948094891862 607.1371567325019 241.52860282588605 520.3298513276675 154.72129742105153 439.38072945069996z" fill="rgba(223, 222, 27, 0.76)" class="triangle-float2"></path><path d="M341.714,375C376.246,374.251,403.391,349.147,420.71,319.263C438.088,289.276,444.712,254.066,429.978,222.695C412.714,185.935,382.323,151.592,341.714,151.063C300.475,150.526,267.693,183.391,249.372,220.341C233.067,253.225,237.732,291.311,256.548,322.825C274.841,353.463,306.039,375.774,341.714,375" fill="rgba(223, 222, 27, 0.76)" class="triangle-float3"></path><path d="M51.71834764678382 441.09627317733543L-53.16484632595101 459.59001009760806 70.21208456705644 545.9794671500703z" fill="rgba(223, 222, 27, 0.76)" class="triangle-float1"></path><path d="M1225.0356920462482 190.90806749647618L1367.277858077032 121.53192765506687 1297.9017182356226-20.710238375716983 1155.659552204839 48.66590146569234z" fill="rgba(223, 222, 27, 0.76)" class="triangle-float3"></path></g><defs><mask id="SvgjsMask1002"><rect width="1440" height="560" fill="#ffffff"></rect></mask><style>
            @keyframes float1 {
                0%{transform: translate(0, 0)}
                50%{transform: translate(-10px, 0)}
                100%{transform: translate(0, 0)}
            }

            .triangle-float1 {
                animation: float1 5s infinite;
            }

            @keyframes float2 {
                0%{transform: translate(0, 0)}
                50%{transform: translate(-5px, -5px)}
                100%{transform: translate(0, 0)}
            }

            .triangle-float2 {
                animation: float2 4s infinite;
            }

            @keyframes float3 {
                0%{transform: translate(0, 0)}
                50%{transform: translate(0, -10px)}
                100%{transform: translate(0, 0)}
            }

            .triangle-float3 {
                animation: float3 6s infinite;
            }
        </style></defs></svg>